<svg xmlns="http://www.w3.org/2000/svg" width="1400" height="1050" viewBox="0 0 1400 1050" role="img" aria-label="Demo design-system specimen for the fictional Apex Sprint Lab performance app: colour swatches, type scale and component chips on a dark theme. Fictional demo, not client work.">
  <!-- Original UI Forge Studio artwork. Static — no animation. -->
  <rect x="0" y="0" width="1400" height="1050" fill="#0d1526"/>
  <path d="M48 62 V48 H62" fill="none" stroke="#c9c6bd" stroke-width="1.5"/>
  <path d="M1338 48 H1352 V62" fill="none" stroke="#c9c6bd" stroke-width="1.5"/>
  <path d="M1352 988 V1002 H1338" fill="none" stroke="#c9c6bd" stroke-width="1.5"/>
  <path d="M62 1002 H48 V988" fill="none" stroke="#c9c6bd" stroke-width="1.5"/>
  <text x="96" y="120" font-family="'SF Mono', ui-monospace, Menlo, Consolas, monospace" font-size="14" letter-spacing="2.52" fill="#1e6fff">DESIGN-SYSTEM SPECIMEN</text>
  <text x="96" y="172" font-family="Georgia, 'Times New Roman', serif" font-size="40" fill="#ffffff">Apex Sprint Lab</text>
  <line x1="96" y1="202" x2="1304" y2="202" stroke="#22304a" stroke-width="1.5"/>
  <rect x="96" y="250" width="100" height="100" fill="#1e6fff" rx="4" stroke="#22304a" stroke-width="1.5"/>
  <text x="96" y="378" font-family="'SF Mono', ui-monospace, Menlo, Consolas, monospace" font-size="11" letter-spacing="1.98" fill="#8fa3c4">ACCENT</text>
  <rect x="226" y="250" width="100" height="100" fill="#ffffff" rx="4" stroke="#22304a" stroke-width="1.5"/>
  <text x="226" y="378" font-family="'SF Mono', ui-monospace, Menlo, Consolas, monospace" font-size="11" letter-spacing="1.98" fill="#8fa3c4">INK</text>
  <rect x="356" y="250" width="100" height="100" fill="#8fa3c4" rx="4" stroke="#22304a" stroke-width="1.5"/>
  <text x="356" y="378" font-family="'SF Mono', ui-monospace, Menlo, Consolas, monospace" font-size="11" letter-spacing="1.98" fill="#8fa3c4">MUTED</text>
  <rect x="486" y="250" width="100" height="100" fill="#1b2942" rx="4" stroke="#22304a" stroke-width="1.5"/>
  <text x="486" y="378" font-family="'SF Mono', ui-monospace, Menlo, Consolas, monospace" font-size="11" letter-spacing="1.98" fill="#8fa3c4">WASH</text>
  <rect x="616" y="250" width="100" height="100" fill="#22304a" rx="4" stroke="#22304a" stroke-width="1.5"/>
  <text x="616" y="378" font-family="'SF Mono', ui-monospace, Menlo, Consolas, monospace" font-size="11" letter-spacing="1.98" fill="#8fa3c4">LINE</text>
  <text x="820" y="310" font-family="Georgia, 'Times New Roman', serif" font-size="80" fill="#ffffff">Ag</text>
  <text x="960" y="310" font-family="'Helvetica Neue', Helvetica, Arial, sans-serif" font-size="60" fill="#ffffff">Ag</text>
  <text x="1090" y="310" font-family="'SF Mono', ui-monospace, Menlo, Consolas, monospace" font-size="44" fill="#8fa3c4">Ag</text>
  <rect x="96" y="470" width="380" height="200" fill="#101a2c" rx="6" stroke="#22304a" stroke-width="1.5"/>
  <text x="120" y="504" font-family="'SF Mono', ui-monospace, Menlo, Consolas, monospace" font-size="11" letter-spacing="1.98" fill="#8fa3c4">BUTTON</text>
  <rect x="120" y="530" width="160" height="44" fill="#1e6fff" rx="22"/>
  <rect x="120" y="598" width="320" height="10" fill="#8fa3c4" rx="5"/>
  <rect x="120" y="622" width="260" height="10" fill="#22304a" rx="5"/>
  <rect x="516" y="470" width="380" height="200" fill="#101a2c" rx="6" stroke="#22304a" stroke-width="1.5"/>
  <text x="540" y="504" font-family="'SF Mono', ui-monospace, Menlo, Consolas, monospace" font-size="11" letter-spacing="1.98" fill="#8fa3c4">FIELD</text>
  <rect x="540" y="530" width="160" height="44" fill="none" rx="22" stroke="#1e6fff" stroke-width="2"/>
  <rect x="540" y="598" width="320" height="10" fill="#8fa3c4" rx="5"/>
  <rect x="540" y="622" width="260" height="10" fill="#22304a" rx="5"/>
  <rect x="936" y="470" width="380" height="200" fill="#101a2c" rx="6" stroke="#22304a" stroke-width="1.5"/>
  <text x="960" y="504" font-family="'SF Mono', ui-monospace, Menlo, Consolas, monospace" font-size="11" letter-spacing="1.98" fill="#8fa3c4">CARD</text>
  <rect x="960" y="530" width="160" height="44" fill="#1e6fff" rx="22"/>
  <rect x="960" y="598" width="320" height="10" fill="#8fa3c4" rx="5"/>
  <rect x="960" y="622" width="260" height="10" fill="#22304a" rx="5"/>
  <rect x="96" y="710" width="380" height="200" fill="#101a2c" rx="6" stroke="#22304a" stroke-width="1.5"/>
  <text x="120" y="744" font-family="'SF Mono', ui-monospace, Menlo, Consolas, monospace" font-size="11" letter-spacing="1.98" fill="#8fa3c4">NAV</text>
  <rect x="120" y="770" width="160" height="44" fill="none" rx="22" stroke="#1e6fff" stroke-width="2"/>
  <rect x="120" y="838" width="320" height="10" fill="#8fa3c4" rx="5"/>
  <rect x="120" y="862" width="260" height="10" fill="#22304a" rx="5"/>
  <rect x="516" y="710" width="380" height="200" fill="#101a2c" rx="6" stroke="#22304a" stroke-width="1.5"/>
  <text x="540" y="744" font-family="'SF Mono', ui-monospace, Menlo, Consolas, monospace" font-size="11" letter-spacing="1.98" fill="#8fa3c4">BADGE</text>
  <rect x="540" y="770" width="160" height="44" fill="#1e6fff" rx="22"/>
  <rect x="540" y="838" width="320" height="10" fill="#8fa3c4" rx="5"/>
  <rect x="540" y="862" width="260" height="10" fill="#22304a" rx="5"/>
  <rect x="936" y="710" width="380" height="200" fill="#101a2c" rx="6" stroke="#22304a" stroke-width="1.5"/>
  <text x="960" y="744" font-family="'SF Mono', ui-monospace, Menlo, Consolas, monospace" font-size="11" letter-spacing="1.98" fill="#8fa3c4">TAB</text>
  <rect x="960" y="770" width="160" height="44" fill="none" rx="22" stroke="#1e6fff" stroke-width="2"/>
  <rect x="960" y="838" width="320" height="10" fill="#8fa3c4" rx="5"/>
  <rect x="960" y="862" width="260" height="10" fill="#22304a" rx="5"/>
  <path d="M1299.24 98 H1308.76 V107.24 H1318 V116.76 H1308.76 V126 H1299.24 V116.76 H1290 V107.24 H1299.24 Z" fill="#1e6fff"/>
  <text x="48" y="1010" font-family="'Helvetica Neue', Helvetica, Arial, sans-serif" font-size="22" letter-spacing="4" fill="#8fa3c4">DEMO — FICTIONAL BRAND · NOT CLIENT WORK</text>

</svg>
